<svg width="238" height="20" viewBox="0 0 238 20" fill="none" xmlns="http://www.w3.org/2000/svg">
<path d="M104.793 12.4L97.9909 6.7L91.6011 12.4H104.793ZM126.745 18.7C126.745 18.9 126.539 19 126.127 19H112.729C112.523 19 112.42 19 112.317 18.9L107.782 15.1H88.7153L84.2837 19H80.4704C80.0581 19 79.852 18.9 79.852 18.7C79.852 18.6 79.852 18.5 79.9551 18.4L101.392 0.2C101.495 0.0999998 101.598 0.0999999 101.804 0.0999999H104.999C105.205 0.0999999 105.308 0.0999998 105.411 0.2L126.539 18.4C126.745 18.5 126.745 18.6 126.745 18.7ZM25.023 12.4L18.2209 6.7L11.8311 12.4H25.023ZM46.9752 18.7C46.9752 18.9 46.7691 19 46.3569 19H32.9588C32.7527 19 32.6496 19 32.5466 18.9L28.1149 15.1H8.8423L4.41063 19H0.700402C0.288154 19 0.0820313 18.9 0.0820313 18.7C0.0820313 18.6 0.0820297 18.5 0.185092 18.4L21.725 0.2C21.8281 0.0999998 21.9312 0.0999999 22.1373 0.0999999H25.3322C25.5383 0.0999999 25.6414 0.0999998 25.7445 0.2L46.8722 18.4C46.9752 18.5 46.9752 18.6 46.9752 18.7ZM82.1194 9.5C82.1194 12.2 81.2949 14.5 79.5428 16.2C77.7908 18 75.5234 18.9 72.7407 18.9H49.0365C48.6242 18.9 48.5212 18.8 48.5212 18.5V0.4C48.5212 0.2 48.7273 0 49.0365 0H72.7407C75.5234 0 77.7908 0.9 79.5428 2.7C81.2949 4.5 82.1194 6.8 82.1194 9.5ZM69.4427 10.7V7.7C69.4427 6.2 69.2366 5.2 68.9274 4.6C68.4121 3.8 67.4846 3.4 66.1448 3.4H60.3733V15.8H66.1448C67.4846 15.8 68.5152 15.2 68.9274 14.1C69.2366 13.4 69.4427 12.2 69.4427 10.7ZM167.764 18.7C167.764 18.9 167.558 19.1 167.249 19.1H156.427C156.118 19.1 155.912 19 155.912 18.7V11.3L146.636 18.9C146.533 19 145.709 19 144.266 19C144.163 19 143.957 19 143.853 18.9L133.444 11.3V18.7C133.444 18.9 133.238 19.1 132.929 19.1H128.806C128.497 19.1 128.291 19 128.291 18.7V0.4C128.291 0.2 128.497 0 128.806 0H133.238C133.444 0 133.547 -9.68575e-08 133.65 0.0999999L147.77 12.3L162.92 0.0999999C162.92 0.0999999 163.126 0.0999999 163.229 0.0999999H167.145C167.455 0.0999999 167.661 0.2 167.661 0.5V18.7H167.764ZM200.228 18.7C200.228 18.9 200.022 19.1 199.713 19.1H179.41C176.627 19.1 174.36 18.2 172.608 16.4C170.856 14.6 170.031 12.4 170.031 9.7C170.031 6.9 170.856 4.7 172.608 2.9C174.257 1 176.524 0.0999999 179.41 0.0999999H199.713C200.022 0.0999999 200.228 0.2 200.228 0.5V3.1C200.228 3.3 200.022 3.4 199.713 3.4H186.109C184.666 3.4 183.738 3.8 183.326 4.6C183.017 5.1 182.811 5.9 182.811 7.1H196.415C196.724 7.1 196.93 7.2 196.93 7.5V10.1C196.93 10.3 196.724 10.5 196.415 10.5H182.811V10.8C182.811 12.3 183.017 13.5 183.326 14.2C183.842 15.3 184.769 15.9 186.212 15.9H199.816C200.125 15.9 200.331 16 200.331 16.3V18.7H200.228ZM237.64 0.4C237.64 0.5 237.537 0.6 237.434 0.7L227.128 9.6L237.434 18.5C237.537 18.6 237.64 18.7 237.64 18.8C237.64 19 237.434 19.1 237.021 19.1H223.623C223.417 19.1 223.314 19.1 223.211 19L214.966 11.9L206.721 19C206.618 19.1 206.515 19.1 206.309 19.1H202.496C202.083 19.1 201.877 19 201.877 18.8C201.877 18.7 201.877 18.6 201.98 18.5L212.287 9.6L201.98 0.7C201.877 0.6 201.774 0.5 201.774 0.4C201.774 0.2 201.98 0.0999999 202.393 0.0999999H215.791C215.997 0.0999999 216.1 0.0999998 216.203 0.2L224.345 7.3L232.487 0.2C232.796 0.0999998 233.002 0.0999999 233.208 0.0999999H237.125C237.434 0.0999999 237.64 0.2 237.64 0.4Z" fill="#111111"/>
</svg>
